<svg xmlns="http://www.w3.org/2000/svg" viewBox="-2 -2 178 45">
  <defs>
    <mask id="m" maskUnits="userSpaceOnUse" x="-2" y="-2" width="178" height="45">
      <rect x="-2" y="-2" width="178" height="45" fill="white"/>
      <g transform="translate(14, 15.184)" fill="black" stroke="black" stroke-width="5" stroke-linejoin="round">
        <path transform="translate(-1.05, 22.29)" d="M9.4 0.3L9.4 0.3Q6.84 0.3 4.95-0.77 3.07-1.84 2.06-3.67 1.05-5.51 1.05-7.83L1.05-7.83Q1.05-10.54 2.15-12.45 3.25-14.36 5.03-15.39 6.81-16.41 8.79-16.41L8.79-16.41Q10.33-16.41 11.7-15.78 13.07-15.15 14.12-14.05 15.18-12.95 15.8-11.5 16.41-10.06 16.41-8.43L16.41-8.43Q16.38-7.71 15.84-7.26 15.3-6.81 14.58-6.81L14.58-6.81 3.07-6.81 2.17-9.82 13.22-9.82 12.56-9.22 12.56-10.03Q12.5-10.9 11.94-11.59 11.38-12.29 10.56-12.69 9.73-13.1 8.79-13.1L8.79-13.1Q7.89-13.1 7.11-12.86 6.32-12.62 5.75-12.05 5.18-11.47 4.85-10.51 4.52-9.55 4.52-8.07L4.52-8.07Q4.52-6.44 5.19-5.32 5.87-4.19 6.94-3.6 8.01-3.01 9.22-3.01L9.22-3.01Q10.33-3.01 10.99-3.19 11.65-3.37 12.06-3.63 12.47-3.88 12.8-4.07L12.8-4.07Q13.34-4.34 13.82-4.34L13.82-4.34Q14.49-4.34 14.92-3.88 15.36-3.43 15.36-2.83L15.36-2.83Q15.36-2.02 14.52-1.36L14.52-1.36Q13.73-0.69 12.32-0.2 10.9 0.3 9.4 0.3ZM22.34-20.45L22.34-1.84Q22.34-1.05 21.81-0.53 21.29 0 20.5 0L20.5 0Q19.75 0 19.24-0.53 18.73-1.05 18.73-1.84L18.73-1.84 18.73-20.45Q18.73-21.23 19.25-21.76 19.78-22.29 20.56-22.29L20.56-22.29Q21.35-22.29 21.84-21.76 22.34-21.23 22.34-20.45L22.34-20.45ZM29.47-20.45L29.47-1.84Q29.47-1.05 28.94-0.53 28.42 0 27.63 0L27.63 0Q26.88 0 26.37-0.53 25.86-1.05 25.86-1.84L25.86-1.84 25.86-20.45Q25.86-21.23 26.38-21.76 26.91-22.29 27.69-22.29L27.69-22.29Q28.48-22.29 28.97-21.76 29.47-21.23 29.47-20.45L29.47-20.45ZM47.86-8.04L47.86-8.04Q47.86-5.57 46.77-3.69 45.67-1.81 43.81-0.75 41.96 0.3 39.67 0.3L39.67 0.3Q37.38 0.3 35.53-0.75 33.68-1.81 32.58-3.69 31.48-5.57 31.48-8.04L31.48-8.04Q31.48-10.51 32.58-12.39 33.68-14.27 35.53-15.34 37.38-16.41 39.67-16.41L39.67-16.41Q41.96-16.41 43.81-15.34 45.67-14.27 46.77-12.39 47.86-10.51 47.86-8.04ZM44.25-8.04L44.25-8.04Q44.25-9.58 43.63-10.71 43.02-11.84 41.98-12.47 40.94-13.10 39.67-13.10L39.67-13.10Q38.41-13.10 37.37-12.47 36.33-11.84 35.71-10.71 35.10-9.58 35.10-8.04L35.10-8.04Q35.10-6.53 35.71-5.41 36.33-4.28 37.37-3.64 38.41-3.01 39.67-3.01L39.67-3.01Q40.94-3.01 41.98-3.64 43.02-4.28 43.63-5.41 44.25-6.53 44.25-8.04ZM68.43-16.11L68.43-16.11Q69.12-16.11 69.63-15.58 70.14-15.06 70.14-14.24L70.14-14.24Q70.14-14.03 70.11-13.87 70.08-13.70 70.02-13.55L70.02-13.55 65.42-1.14Q65.20-0.54 64.66-0.23 64.12 0.09 63.52 0L63.52 0Q62.49-0.06 61.98-1.14L61.98-1.14 59-9.73 59.78-9.70 56.98-1.14Q56.47-0.06 55.45 0L55.45 0Q54.88 0.09 54.32-0.23 53.76-0.54 53.55-1.14L53.55-1.14 48.94-13.55Q48.82-13.88 48.82-14.24L48.82-14.24Q48.82-14.97 49.30-15.54 49.79-16.11 50.63-16.11L50.63-16.11Q51.20-16.11 51.65-15.84 52.10-15.57 52.29-14.97L52.29-14.97 55.93-5.09 55.18-5.15 57.92-12.59Q58.40-13.70 59.57-13.70L59.57-13.70Q60.24-13.70 60.58-13.42 60.93-13.13 61.14-12.59L61.14-12.59 63.88-5.15 62.98-5.03 66.68-14.97Q67.04-16.11 68.43-16.11Z"></path>
        <g transform="translate(72.09, 0)"><path transform="translate(-2.26, 22.29)" d="M5.87-20.45L5.87-1.84Q5.87-1.05 5.35-0.53 4.82 0 4.04 0L4.04 0Q3.28 0 2.77-0.53 2.26-1.05 2.26-1.84L2.26-1.84 2.26-20.45Q2.26-21.23 2.79-21.76 3.31-22.29 4.10-22.29L4.10-22.29Q4.88-22.29 5.38-21.76 5.87-21.23 5.87-20.45L5.87-20.45ZM22.13-16.41L22.13-16.41Q22.91-16.41 23.42-15.90 23.94-15.39 23.94-14.58L23.94-14.58 23.94-1.84Q23.94-1.05 23.42-0.53 22.91 0 22.13 0L22.13 0Q21.35 0 20.83-0.53 20.32-1.05 20.32-1.84L20.32-1.84 20.32-3.31 20.98-3.04Q20.98-2.65 20.56-2.09 20.14-1.54 19.42-0.99 18.70-0.45 17.72-0.08 16.74 0.30 15.59 0.30L15.59 0.30Q13.52 0.30 11.83-0.77 10.14-1.84 9.16-3.72 8.19-5.60 8.19-8.04L8.19-8.04Q8.19-10.51 9.16-12.39 10.14-14.27 11.80-15.34 13.46-16.41 15.47-16.41L15.47-16.41Q16.77-16.41 17.85-16.02 18.94-15.63 19.73-15.03 20.53-14.43 20.97-13.81 21.41-13.19 21.41-12.77L21.41-12.77 20.32-12.38 20.32-14.58Q20.32-15.36 20.83-15.89 21.35-16.41 22.13-16.41ZM16.05-3.01L16.05-3.01Q17.37-3.01 18.36-3.67 19.36-4.34 19.91-5.48 20.47-6.63 20.47-8.04L20.47-8.04Q20.47-9.49 19.91-10.63 19.36-11.78 18.36-12.44 17.37-13.10 16.05-13.10L16.05-13.10Q14.75-13.10 13.76-12.44 12.76-11.78 12.21-10.63 11.65-9.49 11.65-8.04L11.65-8.04Q11.65-6.63 12.21-5.48 12.76-4.34 13.76-3.67 14.75-3.01 16.05-3.01ZM39.89-22.29L39.89-22.29Q40.67-22.29 41.19-21.77 41.70-21.26 41.70-20.45L41.70-20.45 41.70-1.84Q41.70-1.05 41.19-0.53 40.67 0 39.89 0L39.89 0Q39.11 0 38.60-0.53 38.08-1.05 38.08-1.84L38.08-1.84 38.08-3.31 38.75-3.04Q38.75-2.65 38.32-2.09 37.90-1.54 37.18-0.99 36.46-0.45 35.48-0.08 34.50 0.30 33.36 0.30L33.36 0.30Q31.28 0.30 29.59-0.77 27.90-1.84 26.93-3.72 25.95-5.60 25.95-8.04L25.95-8.04Q25.95-10.51 26.93-12.39 27.90-14.27 29.56-15.34 31.22-16.41 33.23-16.41L33.23-16.41Q34.53-16.41 35.61-16.02 36.70-15.63 37.50-15.03 38.29-14.43 38.73-13.81 39.17-13.19 39.17-12.77L39.17-12.77 38.08-12.38 38.08-20.45Q38.08-21.23 38.60-21.76 39.11-22.29 39.89-22.29ZM33.81-3.01L33.81-3.01Q35.13-3.01 36.13-3.67 37.12-4.34 37.68-5.48 38.23-6.63 38.23-8.04L38.23-8.04Q38.23-9.49 37.68-10.63 37.12-11.78 36.13-12.44 35.13-13.10 33.81-13.10L33.81-13.10Q32.51-13.10 31.52-12.44 30.52-11.78 29.97-10.63 29.41-9.49 29.41-8.04L29.41-8.04Q29.41-6.63 29.97-5.48 30.52-4.34 31.52-3.67 32.51-3.01 33.81-3.01ZM57.65-22.29L57.65-22.29Q58.43-22.29 58.95-21.77 59.46-21.26 59.46-20.45L59.46-20.45 59.46-1.84Q59.46-1.05 58.95-0.53 58.43 0 57.65 0L57.65 0Q56.87 0 56.36-0.53 55.84-1.05 55.84-1.84L55.84-1.84 55.84-3.31 56.51-3.04Q56.51-2.65 56.09-2.09 55.66-1.54 54.94-0.99 54.22-0.45 53.24-0.08 52.26 0.30 51.12 0.30L51.12 0.30Q49.04 0.30 47.35-0.77 45.67-1.84 44.69-3.72 43.71-5.60 43.71-8.04L43.71-8.04Q43.71-10.51 44.69-12.39 45.67-14.27 47.32-15.34 48.98-16.41 51-16.41L51-16.41Q52.29-16.41 53.38-16.02 54.46-15.63 55.26-15.03 56.06-14.43 56.49-13.81 56.93-13.19 56.93-12.77L56.93-12.77 55.84-12.38 55.84-20.45Q55.84-21.23 56.36-21.76 56.87-22.29 57.65-22.29ZM51.57-3.01L51.57-3.01Q52.89-3.01 53.89-3.67 54.88-4.34 55.44-5.48 56-6.63 56-8.04L56-8.04Q56-9.49 55.44-10.63 54.88-11.78 53.89-12.44 52.89-13.10 51.57-13.10L51.57-13.10Q50.27-13.10 49.28-12.44 48.29-11.78 47.73-10.63 47.17-9.49 47.17-8.04L47.17-8.04Q47.17-6.63 47.73-5.48 48.29-4.34 49.28-3.67 50.27-3.01 51.57-3.01ZM69.81 0.30L69.81 0.30Q67.25 0.30 65.37-0.77 63.49-1.84 62.48-3.67 61.47-5.51 61.47-7.83L61.47-7.83Q61.47-10.54 62.57-12.45 63.67-14.36 65.45-15.39 67.22-16.41 69.21-16.41L69.21-16.41Q70.75-16.41 72.12-15.78 73.49-15.15 74.54-14.05 75.59-12.95 76.21-11.50 76.83-10.06 76.83-8.43L76.83-8.43Q76.80-7.71 76.26-7.26 75.71-6.81 74.99-6.81L74.99-6.81 63.49-6.81 62.58-9.82 73.64-9.82 72.97-9.22 72.97-10.03Q72.91-10.90 72.36-11.59 71.80-12.29 70.97-12.69 70.14-13.10 69.21-13.10L69.21-13.10Q68.31-13.10 67.52-12.86 66.74-12.62 66.17-12.05 65.60-11.47 65.26-10.51 64.93-9.55 64.93-8.07L64.93-8.07Q64.93-6.44 65.61-5.32 66.29-4.19 67.36-3.60 68.43-3.01 69.63-3.01L69.63-3.01Q70.75-3.01 71.41-3.19 72.07-3.37 72.48-3.63 72.88-3.88 73.22-4.07L73.22-4.07Q73.76-4.34 74.24-4.34L74.24-4.34Q74.90-4.34 75.34-3.88 75.78-3.43 75.78-2.83L75.78-2.83Q75.78-2.02 74.93-1.36L74.93-1.36Q74.15-0.69 72.73-0.20 71.32 0.30 69.81 0.30ZM80.65 0L80.65 0Q79.86 0 79.35-0.53 78.84-1.05 78.84-1.84L78.84-1.84 78.84-14.27Q78.84-15.06 79.35-15.58 79.86-16.11 80.65-16.11L80.65-16.11Q81.43-16.11 81.94-15.58 82.45-15.06 82.45-14.27L82.45-14.27 82.45-11.44 82.24-13.46Q82.57-14.18 83.10-14.74 83.63-15.30 84.29-15.67 84.95-16.05 85.71-16.23 86.46-16.41 87.21-16.41L87.21-16.41Q88.12-16.41 88.73-15.90 89.35-15.39 89.35-14.70L89.35-14.70Q89.35-13.70 88.84-13.27 88.33-12.83 87.72-12.83L87.72-12.83Q87.15-12.83 86.69-13.04 86.22-13.25 85.62-13.25L85.62-13.25Q85.07-13.25 84.52-12.99 83.96-12.74 83.49-12.20 83.03-11.65 82.74-10.86 82.45-10.06 82.45-8.97L82.45-8.97 82.45-1.84Q82.45-1.05 81.94-0.53 81.43 0 80.65 0Z"></path></g>
      </g>
    </mask>
  </defs>
  <g mask="url(#m)">
    <svg x="0" y="0" width="22.5" height="40.9575" viewBox="0.004 0.004 25.27 46" overflow="visible">
      <path transform="translate(1.584 41.544)" fill="#000" d="M6.05-37.22C4.97-39.10 3.38-41.04 1.08-41.04C-0.07-41.04-1.58-40.10-1.58-38.59C-1.58-36.14 5.33-25.92 7.49-23.47C7.34-21.96 6.91-20.52 6.48-19.01C5.54-16.20 1.58-3.96 1.58-1.87C1.58-0.14 3.46 0.86 4.68 0.86C4.90 0.86 5.11 0.86 5.33 0.79C5.26 1.22 5.18 1.51 5.18 1.73C5.18 3.46 7.06 4.46 8.28 4.46C11.45 4.46 12.53 0.14 13.10-2.23C15.26-12.38 18.29-21.46 22.10-31.10L23.69-35.14L23.69-35.28C23.69-37.15 21.67-37.94 20.52-37.94C20.30-37.94 20.02-37.87 19.73-37.80L20.09-38.74L20.09-38.88C20.09-40.75 18.07-41.54 16.92-41.54C16.20-41.54 14.11-40.82 13.68-39.82L10.44-32.11C10.08-32.76 9.72-33.48 9.29-34.13C8.71-35.21 7.56-36.65 6.05-37.22Z"></path>
      <path transform="translate(1.584 41.544)" fill="#f5b50a" d="M1.08-40.18C2.38-40.18 4.03-39.10 4.97-37.30C6.55-34.27 8.21-31.54 10.08-28.94L14.47-39.46C15.26-40.25 16.13-40.68 16.92-40.68C18.14-40.68 19.22-39.82 19.22-38.88C15.19-28.94 11.52-19.30 9.22-8.86C8.78-6.98 8.57-5.04 7.85-3.24C7.13-1.15 5.98 0 4.68 0C3.60 0 2.52-0.86 2.45-1.87C2.38-2.74 6.34-15.84 7.27-18.72C7.78-20.38 8.28-22.03 8.35-23.76C6.41-25.70-0.72-36.50-0.72-38.59C-0.50-39.67 0.22-40.18 1.08-40.18Z"></path>
    </svg>
  </g>
  <g transform="translate(14, 15.184)" fill="#000">
    <path transform="translate(-1.05, 22.29)" d="M9.4 0.3L9.4 0.3Q6.84 0.3 4.95-0.77 3.07-1.84 2.06-3.67 1.05-5.51 1.05-7.83L1.05-7.83Q1.05-10.54 2.15-12.45 3.25-14.36 5.03-15.39 6.81-16.41 8.79-16.41L8.79-16.41Q10.33-16.41 11.7-15.78 13.07-15.15 14.12-14.05 15.18-12.95 15.8-11.5 16.41-10.06 16.41-8.43L16.41-8.43Q16.38-7.71 15.84-7.26 15.3-6.81 14.58-6.81L14.58-6.81 3.07-6.81 2.17-9.82 13.22-9.82 12.56-9.22 12.56-10.03Q12.5-10.9 11.94-11.59 11.38-12.29 10.56-12.69 9.73-13.1 8.79-13.1L8.79-13.1Q7.89-13.1 7.11-12.86 6.32-12.62 5.75-12.05 5.18-11.47 4.85-10.51 4.52-9.55 4.52-8.07L4.52-8.07Q4.52-6.44 5.19-5.32 5.87-4.19 6.94-3.6 8.01-3.01 9.22-3.01L9.22-3.01Q10.33-3.01 10.99-3.19 11.65-3.37 12.06-3.63 12.47-3.88 12.8-4.07L12.8-4.07Q13.34-4.34 13.82-4.34L13.82-4.34Q14.49-4.34 14.92-3.88 15.36-3.43 15.36-2.83L15.36-2.83Q15.36-2.02 14.52-1.36L14.52-1.36Q13.73-0.69 12.32-0.2 10.9 0.3 9.4 0.3ZM22.34-20.45L22.34-1.84Q22.34-1.05 21.81-0.53 21.29 0 20.5 0L20.5 0Q19.75 0 19.24-0.53 18.73-1.05 18.73-1.84L18.73-1.84 18.73-20.45Q18.73-21.23 19.25-21.76 19.78-22.29 20.56-22.29L20.56-22.29Q21.35-22.29 21.84-21.76 22.34-21.23 22.34-20.45L22.34-20.45ZM29.47-20.45L29.47-1.84Q29.47-1.05 28.94-0.53 28.42 0 27.63 0L27.63 0Q26.88 0 26.37-0.53 25.86-1.05 25.86-1.84L25.86-1.84 25.86-20.45Q25.86-21.23 26.38-21.76 26.91-22.29 27.69-22.29L27.69-22.29Q28.48-22.29 28.97-21.76 29.47-21.23 29.47-20.45L29.47-20.45ZM47.86-8.04L47.86-8.04Q47.86-5.57 46.77-3.69 45.67-1.81 43.81-0.75 41.96 0.3 39.67 0.3L39.67 0.3Q37.38 0.3 35.53-0.75 33.68-1.81 32.58-3.69 31.48-5.57 31.48-8.04L31.48-8.04Q31.48-10.51 32.58-12.39 33.68-14.27 35.53-15.34 37.38-16.41 39.67-16.41L39.67-16.41Q41.96-16.41 43.81-15.34 45.67-14.27 46.77-12.39 47.86-10.51 47.86-8.04ZM44.25-8.04L44.25-8.04Q44.25-9.58 43.63-10.71 43.02-11.84 41.98-12.47 40.94-13.10 39.67-13.10L39.67-13.10Q38.41-13.10 37.37-12.47 36.33-11.84 35.71-10.71 35.10-9.58 35.10-8.04L35.10-8.04Q35.10-6.53 35.71-5.41 36.33-4.28 37.37-3.64 38.41-3.01 39.67-3.01L39.67-3.01Q40.94-3.01 41.98-3.64 43.02-4.28 43.63-5.41 44.25-6.53 44.25-8.04ZM68.43-16.11L68.43-16.11Q69.12-16.11 69.63-15.58 70.14-15.06 70.14-14.24L70.14-14.24Q70.14-14.03 70.11-13.87 70.08-13.70 70.02-13.55L70.02-13.55 65.42-1.14Q65.20-0.54 64.66-0.23 64.12 0.09 63.52 0L63.52 0Q62.49-0.06 61.98-1.14L61.98-1.14 59-9.73 59.78-9.70 56.98-1.14Q56.47-0.06 55.45 0L55.45 0Q54.88 0.09 54.32-0.23 53.76-0.54 53.55-1.14L53.55-1.14 48.94-13.55Q48.82-13.88 48.82-14.24L48.82-14.24Q48.82-14.97 49.30-15.54 49.79-16.11 50.63-16.11L50.63-16.11Q51.20-16.11 51.65-15.84 52.10-15.57 52.29-14.97L52.29-14.97 55.93-5.09 55.18-5.15 57.92-12.59Q58.40-13.70 59.57-13.70L59.57-13.70Q60.24-13.70 60.58-13.42 60.93-13.13 61.14-12.59L61.14-12.59 63.88-5.15 62.98-5.03 66.68-14.97Q67.04-16.11 68.43-16.11Z"></path>
    <g transform="translate(72.09, 0)"><path transform="translate(-2.26, 22.29)" d="M5.87-20.45L5.87-1.84Q5.87-1.05 5.35-0.53 4.82 0 4.04 0L4.04 0Q3.28 0 2.77-0.53 2.26-1.05 2.26-1.84L2.26-1.84 2.26-20.45Q2.26-21.23 2.79-21.76 3.31-22.29 4.10-22.29L4.10-22.29Q4.88-22.29 5.38-21.76 5.87-21.23 5.87-20.45L5.87-20.45ZM22.13-16.41L22.13-16.41Q22.91-16.41 23.42-15.90 23.94-15.39 23.94-14.58L23.94-14.58 23.94-1.84Q23.94-1.05 23.42-0.53 22.91 0 22.13 0L22.13 0Q21.35 0 20.83-0.53 20.32-1.05 20.32-1.84L20.32-1.84 20.32-3.31 20.98-3.04Q20.98-2.65 20.56-2.09 20.14-1.54 19.42-0.99 18.70-0.45 17.72-0.08 16.74 0.30 15.59 0.30L15.59 0.30Q13.52 0.30 11.83-0.77 10.14-1.84 9.16-3.72 8.19-5.60 8.19-8.04L8.19-8.04Q8.19-10.51 9.16-12.39 10.14-14.27 11.80-15.34 13.46-16.41 15.47-16.41L15.47-16.41Q16.77-16.41 17.85-16.02 18.94-15.63 19.73-15.03 20.53-14.43 20.97-13.81 21.41-13.19 21.41-12.77L21.41-12.77 20.32-12.38 20.32-14.58Q20.32-15.36 20.83-15.89 21.35-16.41 22.13-16.41ZM16.05-3.01L16.05-3.01Q17.37-3.01 18.36-3.67 19.36-4.34 19.91-5.48 20.47-6.63 20.47-8.04L20.47-8.04Q20.47-9.49 19.91-10.63 19.36-11.78 18.36-12.44 17.37-13.10 16.05-13.10L16.05-13.10Q14.75-13.10 13.76-12.44 12.76-11.78 12.21-10.63 11.65-9.49 11.65-8.04L11.65-8.04Q11.65-6.63 12.21-5.48 12.76-4.34 13.76-3.67 14.75-3.01 16.05-3.01ZM39.89-22.29L39.89-22.29Q40.67-22.29 41.19-21.77 41.70-21.26 41.70-20.45L41.70-20.45 41.70-1.84Q41.70-1.05 41.19-0.53 40.67 0 39.89 0L39.89 0Q39.11 0 38.60-0.53 38.08-1.05 38.08-1.84L38.08-1.84 38.08-3.31 38.75-3.04Q38.75-2.65 38.32-2.09 37.90-1.54 37.18-0.99 36.46-0.45 35.48-0.08 34.50 0.30 33.36 0.30L33.36 0.30Q31.28 0.30 29.59-0.77 27.90-1.84 26.93-3.72 25.95-5.60 25.95-8.04L25.95-8.04Q25.95-10.51 26.93-12.39 27.90-14.27 29.56-15.34 31.22-16.41 33.23-16.41L33.23-16.41Q34.53-16.41 35.61-16.02 36.70-15.63 37.50-15.03 38.29-14.43 38.73-13.81 39.17-13.19 39.17-12.77L39.17-12.77 38.08-12.38 38.08-20.45Q38.08-21.23 38.60-21.76 39.11-22.29 39.89-22.29ZM33.81-3.01L33.81-3.01Q35.13-3.01 36.13-3.67 37.12-4.34 37.68-5.48 38.23-6.63 38.23-8.04L38.23-8.04Q38.23-9.49 37.68-10.63 37.12-11.78 36.13-12.44 35.13-13.10 33.81-13.10L33.81-13.10Q32.51-13.10 31.52-12.44 30.52-11.78 29.97-10.63 29.41-9.49 29.41-8.04L29.41-8.04Q29.41-6.63 29.97-5.48 30.52-4.34 31.52-3.67 32.51-3.01 33.81-3.01ZM57.65-22.29L57.65-22.29Q58.43-22.29 58.95-21.77 59.46-21.26 59.46-20.45L59.46-20.45 59.46-1.84Q59.46-1.05 58.95-0.53 58.43 0 57.65 0L57.65 0Q56.87 0 56.36-0.53 55.84-1.05 55.84-1.84L55.84-1.84 55.84-3.31 56.51-3.04Q56.51-2.65 56.09-2.09 55.66-1.54 54.94-0.99 54.22-0.45 53.24-0.08 52.26 0.30 51.12 0.30L51.12 0.30Q49.04 0.30 47.35-0.77 45.67-1.84 44.69-3.72 43.71-5.60 43.71-8.04L43.71-8.04Q43.71-10.51 44.69-12.39 45.67-14.27 47.32-15.34 48.98-16.41 51-16.41L51-16.41Q52.29-16.41 53.38-16.02 54.46-15.63 55.26-15.03 56.06-14.43 56.49-13.81 56.93-13.19 56.93-12.77L56.93-12.77 55.84-12.38 55.84-20.45Q55.84-21.23 56.36-21.76 56.87-22.29 57.65-22.29ZM51.57-3.01L51.57-3.01Q52.89-3.01 53.89-3.67 54.88-4.34 55.44-5.48 56-6.63 56-8.04L56-8.04Q56-9.49 55.44-10.63 54.88-11.78 53.89-12.44 52.89-13.10 51.57-13.10L51.57-13.10Q50.27-13.10 49.28-12.44 48.29-11.78 47.73-10.63 47.17-9.49 47.17-8.04L47.17-8.04Q47.17-6.63 47.73-5.48 48.29-4.34 49.28-3.67 50.27-3.01 51.57-3.01ZM69.81 0.30L69.81 0.30Q67.25 0.30 65.37-0.77 63.49-1.84 62.48-3.67 61.47-5.51 61.47-7.83L61.47-7.83Q61.47-10.54 62.57-12.45 63.67-14.36 65.45-15.39 67.22-16.41 69.21-16.41L69.21-16.41Q70.75-16.41 72.12-15.78 73.49-15.15 74.54-14.05 75.59-12.95 76.21-11.50 76.83-10.06 76.83-8.43L76.83-8.43Q76.80-7.71 76.26-7.26 75.71-6.81 74.99-6.81L74.99-6.81 63.49-6.81 62.58-9.82 73.64-9.82 72.97-9.22 72.97-10.03Q72.91-10.90 72.36-11.59 71.80-12.29 70.97-12.69 70.14-13.10 69.21-13.10L69.21-13.10Q68.31-13.10 67.52-12.86 66.74-12.62 66.17-12.05 65.60-11.47 65.26-10.51 64.93-9.55 64.93-8.07L64.93-8.07Q64.93-6.44 65.61-5.32 66.29-4.19 67.36-3.60 68.43-3.01 69.63-3.01L69.63-3.01Q70.75-3.01 71.41-3.19 72.07-3.37 72.48-3.63 72.88-3.88 73.22-4.07L73.22-4.07Q73.76-4.34 74.24-4.34L74.24-4.34Q74.90-4.34 75.34-3.88 75.78-3.43 75.78-2.83L75.78-2.83Q75.78-2.02 74.93-1.36L74.93-1.36Q74.15-0.69 72.73-0.20 71.32 0.30 69.81 0.30ZM80.65 0L80.65 0Q79.86 0 79.35-0.53 78.84-1.05 78.84-1.84L78.84-1.84 78.84-14.27Q78.84-15.06 79.35-15.58 79.86-16.11 80.65-16.11L80.65-16.11Q81.43-16.11 81.94-15.58 82.45-15.06 82.45-14.27L82.45-14.27 82.45-11.44 82.24-13.46Q82.57-14.18 83.10-14.74 83.63-15.30 84.29-15.67 84.95-16.05 85.71-16.23 86.46-16.41 87.21-16.41L87.21-16.41Q88.12-16.41 88.73-15.90 89.35-15.39 89.35-14.70L89.35-14.70Q89.35-13.70 88.84-13.27 88.33-12.83 87.72-12.83L87.72-12.83Q87.15-12.83 86.69-13.04 86.22-13.25 85.62-13.25L85.62-13.25Q85.07-13.25 84.52-12.99 83.96-12.74 83.49-12.20 83.03-11.65 82.74-10.86 82.45-10.06 82.45-8.97L82.45-8.97 82.45-1.84Q82.45-1.05 81.94-0.53 81.43 0 80.65 0Z"></path></g>
  </g>
</svg>
