<svg xmlns="http://www.w3.org/2000/svg" viewBox="-1.5 -1.5 25.5 44">
  <svg x="0" y="0" width="22.5" height="40.9575" viewBox="0.004 0.004 25.27 46" overflow="visible">
    <path fill="#000" transform="translate(1.584 41.544)" d="M6.05-37.22C4.97-39.10 3.38-41.04 1.08-41.04C-0.07-41.04-1.58-40.10-1.58-38.59C-1.58-36.14 5.33-25.92 7.49-23.47C7.34-21.96 6.91-20.52 6.48-19.01C5.54-16.20 1.58-3.96 1.58-1.87C1.58-0.14 3.46 0.86 4.68 0.86C4.90 0.86 5.11 0.86 5.33 0.79C5.26 1.22 5.18 1.51 5.18 1.73C5.18 3.46 7.06 4.46 8.28 4.46C11.45 4.46 12.53 0.14 13.10-2.23C15.26-12.38 18.29-21.46 22.10-31.10L23.69-35.14L23.69-35.28C23.69-37.15 21.67-37.94 20.52-37.94C20.30-37.94 20.02-37.87 19.73-37.80L20.09-38.74L20.09-38.88C20.09-40.75 18.07-41.54 16.92-41.54C16.20-41.54 14.11-40.82 13.68-39.82L10.44-32.11C10.08-32.76 9.72-33.48 9.29-34.13C8.71-35.21 7.56-36.65 6.05-37.22Z"></path>
    <path fill="#f5b50a" transform="translate(1.584 41.544)" d="M1.08-40.18C2.38-40.18 4.03-39.10 4.97-37.30C6.55-34.27 8.21-31.54 10.08-28.94L14.47-39.46C15.26-40.25 16.13-40.68 16.92-40.68C18.14-40.68 19.22-39.82 19.22-38.88C15.19-28.94 11.52-19.30 9.22-8.86C8.78-6.98 8.57-5.04 7.85-3.24C7.13-1.15 5.98 0 4.68 0C3.60 0 2.52-0.86 2.45-1.87C2.38-2.74 6.34-15.84 7.27-18.72C7.78-20.38 8.28-22.03 8.35-23.76C6.41-25.70-0.72-36.50-0.72-38.59C-0.50-39.67 0.22-40.18 1.08-40.18Z"></path>
  </svg>
</svg>
